<svg width="160" height="36" viewBox="0 0 160 36" fill="none" xmlns="http://www.w3.org/2000/svg">
<rect width="160" height="36" fill="#3E4C93"/>
<g clip-path="url(#clip0)">
<rect x="10.5222" y="6.99036" width="149.478" height="29.0097" fill="#3E4C93"/>
<g filter="url(#filter0_i)">
<path d="M13.3546 29.815C12.2718 29.815 11.5258 29.4497 11.1164 28.719C10.7203 27.9882 10.5222 26.8996 10.5222 25.4531V13.262H14.0082V24.6702C14.0082 24.7746 14.0082 25.0579 14.0082 25.5202C14.0082 25.9676 14.0676 26.2882 14.1865 26.4821C14.3185 26.661 14.5166 26.7505 14.7807 26.7505C15.1372 26.7505 15.3616 26.5865 15.4541 26.2584C15.5465 25.9154 15.5927 25.4307 15.5927 24.8044V24.6702L15.6125 13.262H19.0589V29.6361H15.5927V27.8913C15.3551 28.5773 15.0778 29.0694 14.7609 29.3677C14.4439 29.6659 13.9752 29.815 13.3546 29.815ZM24.4269 29.815C21.5616 29.815 20.1289 28.1747 20.1289 24.8939L20.1487 23.5965H23.6149L23.6347 25.5202C23.6347 25.9079 23.7007 26.2062 23.8327 26.415C23.9648 26.6088 24.1827 26.7058 24.4863 26.7058C24.9485 26.7058 25.1796 26.2808 25.1796 25.4307C25.1796 24.8044 25.0673 24.3123 24.8429 23.9544C24.6316 23.5965 24.2883 23.2162 23.8129 22.8136L21.9709 21.203C21.3371 20.6512 20.8816 20.0846 20.6043 19.503C20.327 18.9065 20.1883 18.0714 20.1883 16.9976C20.1883 16.1626 20.3798 15.4542 20.7627 14.8726C21.1588 14.2761 21.6804 13.8287 22.3274 13.5305C22.9745 13.2322 23.6941 13.0831 24.4863 13.0831C27.2989 13.0831 28.7051 14.6638 28.7051 17.8253V18.1385H25.1202V17.5121C25.1202 17.1244 25.0607 16.7963 24.9419 16.5279C24.8363 16.2446 24.6514 16.1029 24.3873 16.1029C24.1496 16.1029 23.9648 16.1849 23.8327 16.349C23.7139 16.4981 23.6545 16.7069 23.6545 16.9753C23.6545 17.5718 23.8591 18.0341 24.2685 18.3622L26.4076 20.1293C27.1735 20.7706 27.761 21.4714 28.1704 22.232C28.5797 22.9776 28.7844 23.9246 28.7844 25.0728C28.7844 26.5939 28.4015 27.7646 27.6356 28.5848C26.8697 29.405 25.8002 29.815 24.4269 29.815ZM33.9065 29.815C32.4145 29.815 31.3449 29.3527 30.6979 28.4282C30.0508 27.5036 29.7274 26.1242 29.7274 24.2899V17.7135C29.7274 16.2073 30.1103 15.059 30.8761 14.2686C31.642 13.4783 32.7116 13.0831 34.0848 13.0831C36.8709 13.0831 38.264 14.6265 38.264 17.7135V18.899C38.264 20.092 38.2508 21.0614 38.2244 21.807H33.1935V24.9834C33.1935 25.55 33.2463 25.9974 33.352 26.3255C33.4576 26.6387 33.6821 26.7952 34.0254 26.7952C34.2895 26.7952 34.4743 26.7058 34.58 26.5268C34.6988 26.3479 34.7648 26.1465 34.778 25.9229C34.8044 25.6842 34.8176 25.3413 34.8176 24.8939V23.3057H38.264V24.2452C38.264 26.154 37.9339 27.5632 37.2737 28.4729C36.6266 29.3677 35.5043 29.815 33.9065 29.815ZM34.8176 19.8609V17.7582C34.8176 16.5801 34.5602 15.991 34.0452 15.991C33.4642 15.991 33.1737 16.5801 33.1737 17.7582V19.8609H34.8176ZM39.3985 24.0662V21.5385H44.3899V24.0662H39.3985ZM49.6495 29.815C46.7841 29.815 45.3515 28.1747 45.3515 24.8939L45.3713 23.5965H48.8374L48.8573 25.5202C48.8573 25.9079 48.9232 26.2062 49.0553 26.415C49.1872 26.6088 49.405 26.7058 49.7089 26.7058C50.171 26.7058 50.4022 26.2808 50.4022 25.4307C50.4022 24.8044 50.2898 24.3123 50.0651 23.9544C49.8541 23.5965 49.5109 23.2162 49.0355 22.8136L47.1935 21.203C46.5597 20.6512 46.1041 20.0846 45.8269 19.503C45.5496 18.9065 45.4109 18.0714 45.4109 16.9976C45.4109 16.1626 45.6022 15.4542 45.9853 14.8726C46.3814 14.2761 46.9029 13.8287 47.55 13.5305C48.1968 13.2322 48.9167 13.0831 49.7089 13.0831C52.5215 13.0831 53.9277 14.6638 53.9277 17.8253V18.1385H50.3427V17.5121C50.3427 17.1244 50.2833 16.7963 50.1645 16.5279C50.0586 16.2446 49.8739 16.1029 49.6099 16.1029C49.3722 16.1029 49.1872 16.1849 49.0553 16.349C48.9365 16.4981 48.8771 16.7069 48.8771 16.9753C48.8771 17.5718 49.0816 18.0341 49.4911 18.3622L51.6302 20.1293C52.3958 20.7706 52.9835 21.4714 53.393 22.232C53.8021 22.9776 54.007 23.9246 54.007 25.0728C54.007 26.5939 53.6238 27.7646 52.8582 28.5848C52.0922 29.405 51.0227 29.815 49.6495 29.815ZM55.0688 10.3093H58.634V14.8726C59.0035 13.6796 59.71 13.0831 60.7533 13.0831C61.7303 13.0831 62.4696 13.4335 62.9716 14.1344C63.4733 14.8353 63.7243 15.7972 63.7243 17.02V29.6361H60.2581V17.2661C60.2581 16.9082 60.1854 16.6174 60.0402 16.3937C59.8948 16.17 59.6837 16.0582 59.4064 16.0582C59.1687 16.0582 58.9772 16.1774 58.832 16.4161C58.6999 16.6397 58.634 16.9156 58.634 17.2437V29.6361H55.0688V10.3093ZM69.2874 29.815C66.3957 29.815 64.9498 28.1225 64.9498 24.7373V18.1608C64.9498 16.6099 65.3326 15.3796 66.0986 14.47C66.8775 13.5454 67.9406 13.0831 69.2874 13.0831C70.6343 13.0831 71.6905 13.5454 72.4565 14.47C73.2354 15.3796 73.6251 16.6099 73.6251 18.1608V24.7373C73.6251 28.1225 72.1792 29.815 69.2874 29.815ZM69.2874 26.7952C69.5647 26.7952 69.7693 26.6834 69.9014 26.4597C70.0336 26.236 70.0995 25.9303 70.0995 25.5426V17.5345C70.0995 16.5801 69.8287 16.1029 69.2874 16.1029C68.7462 16.1029 68.4754 16.5801 68.4754 17.5345V25.5426C68.4754 25.9303 68.5413 26.236 68.6734 26.4597C68.8056 26.6834 69.0101 26.7952 69.2874 26.7952ZM74.914 13.262H78.4396V14.1344C78.9413 13.4335 79.6345 13.0831 80.5193 13.0831C81.6415 13.0831 82.4207 13.5081 82.8565 14.3581C83.3052 15.2081 83.5299 16.3862 83.5299 17.8924V23.9544C83.5299 25.2369 83.4637 26.2882 83.3318 27.1084C83.1997 27.9137 82.9091 28.5698 82.4603 29.0769C82.0113 29.569 81.3314 29.815 80.4203 29.815C79.5488 29.815 78.8884 29.5392 78.4396 28.9874V32.902H74.914V13.262ZM79.2715 26.7729C79.5884 26.7729 79.793 26.6088 79.8855 26.2808C79.9777 25.9527 80.0241 25.4755 80.0241 24.8491V17.8924C80.0241 17.3257 79.9777 16.8932 79.8855 16.595C79.793 16.2968 79.5816 16.1476 79.2517 16.1476C78.7101 16.1476 78.4396 16.7143 78.4396 17.8477V25.0281C78.4396 25.5799 78.4922 26.0123 78.5981 26.3255C78.7169 26.6237 78.9413 26.7729 79.2715 26.7729ZM84.8173 13.262H88.3429V14.1344C88.8446 13.4335 89.5378 13.0831 90.4226 13.0831C91.5448 13.0831 92.324 13.5081 92.7598 14.3581C93.2085 15.2081 93.4332 16.3862 93.4332 17.8924V23.9544C93.4332 25.2369 93.367 26.2882 93.2351 27.1084C93.103 27.9137 92.8124 28.5698 92.3636 29.0769C91.9146 29.569 91.2347 29.815 90.3236 29.815C89.4521 29.815 88.7916 29.5392 88.3429 28.9874V32.902H84.8173V13.262ZM89.1748 26.7729C89.4917 26.7729 89.6963 26.6088 89.7888 26.2808C89.881 25.9527 89.9274 25.4755 89.9274 24.8491V17.8924C89.9274 17.3257 89.881 16.8932 89.7888 16.595C89.6963 16.2968 89.4849 16.1476 89.155 16.1476C88.6134 16.1476 88.3429 16.7143 88.3429 17.8477V25.0281C88.3429 25.5799 88.3955 26.0123 88.5014 26.3255C88.6202 26.6237 88.8446 26.7729 89.1748 26.7729ZM94.7008 12.166V9.43695H98.167V12.166H94.7008ZM94.7008 29.6361V13.262H98.167V29.6361H94.7008ZM99.5367 13.262H103.003V15.3423C103.148 14.6713 103.399 14.127 103.756 13.7094C104.112 13.2919 104.587 13.0831 105.182 13.0831C106.159 13.0831 106.878 13.4261 107.341 14.1121C107.816 14.7831 108.054 15.745 108.054 16.9976V29.6361H104.647V17.4003C104.647 17.0424 104.581 16.7367 104.449 16.4832C104.33 16.2297 104.138 16.1029 103.874 16.1029C103.518 16.1029 103.28 16.2893 103.161 16.6621C103.056 17.02 103.003 17.5047 103.003 18.1161V29.6361H99.5367V13.262ZM113.323 32.0296C112.293 32.0296 111.481 31.9327 110.887 31.7388C110.305 31.5598 109.731 31.2094 109.163 30.6874L110.352 28.4282C111.197 28.9948 112.035 29.2782 112.867 29.2782C113.408 29.2782 113.818 29.0843 114.095 28.6966C114.372 28.3089 114.511 27.7795 114.511 27.1084V26.2137C114.234 27.3321 113.501 27.8913 112.313 27.8913C111.322 27.8913 110.589 27.511 110.114 26.7505C109.652 25.99 109.421 24.9759 109.421 23.7083V17.5569C109.421 16.1103 109.632 15.0068 110.055 14.2463C110.49 13.4708 111.243 13.0831 112.313 13.0831C112.933 13.0831 113.422 13.262 113.778 13.6199C114.148 13.9629 114.392 14.455 114.511 15.0963V13.262H118.056V26.8624C118.056 28.6966 117.68 30.0164 116.928 30.8216C116.175 31.6269 114.973 32.0296 113.323 32.0296ZM113.699 24.9386C114.24 24.9386 114.511 24.3868 114.511 23.2833V17.445C114.511 17.1169 114.432 16.8038 114.273 16.5055C114.115 16.2073 113.917 16.0582 113.679 16.0582C113.375 16.0582 113.171 16.1849 113.065 16.4384C112.959 16.677 112.907 17.0126 112.907 17.445V23.2833C112.907 23.7754 112.959 24.1781 113.065 24.4912C113.171 24.7895 113.382 24.9386 113.699 24.9386ZM119.283 24.0662V21.5385H124.274V24.0662H119.283ZM129.91 29.815C128.325 29.815 127.183 29.3602 126.483 28.4505C125.783 27.5409 125.434 26.1465 125.434 24.2676V19.2122C125.434 17.7955 125.565 16.6472 125.83 15.7674C126.107 14.8726 126.562 14.2015 127.196 13.7542C127.843 13.3068 128.734 13.0831 129.87 13.0831C131.111 13.0831 132.121 13.4484 132.901 14.1792C133.68 14.9099 134.069 15.9314 134.069 17.2437V19.749H130.544V17.445C130.544 17.0126 130.491 16.6845 130.385 16.4608C130.279 16.2222 130.075 16.1029 129.771 16.1029C129.203 16.1029 128.919 16.5577 128.919 17.4674V25.4084C128.919 25.7812 128.985 26.1018 129.118 26.3702C129.263 26.6237 129.474 26.7505 129.751 26.7505C130.029 26.7505 130.233 26.6237 130.365 26.3702C130.51 26.1167 130.576 25.7886 130.563 25.386L130.544 22.6346H134.069V25.4978C134.069 26.84 133.68 27.8988 132.901 28.6742C132.135 29.4348 131.138 29.815 129.91 29.815ZM137.916 29.815C136.793 29.815 136.021 29.3975 135.598 28.5624C135.189 27.7124 134.984 26.5044 134.984 24.9386C134.984 23.6561 135.129 22.6719 135.42 21.9859C135.724 21.2999 136.14 20.8004 136.668 20.4872C137.196 20.1591 138.001 19.8012 139.084 19.4135L140.035 19.0556V19.0109V17.3779C140.035 16.9455 139.956 16.6174 139.797 16.3937C139.652 16.1551 139.474 16.0358 139.263 16.0358C139.078 16.0358 138.912 16.1327 138.767 16.3266C138.635 16.5205 138.569 16.7814 138.569 17.1095V18.0937H135.202V17.5569C135.202 15.9463 135.532 14.798 136.192 14.1121C136.866 13.4261 137.955 13.0831 139.461 13.0831C140.662 13.0831 141.639 13.441 142.392 14.1568C143.145 14.8577 143.521 15.8568 143.521 17.1542V29.6361H140.075V27.69C139.903 28.3611 139.626 28.883 139.243 29.2558C138.873 29.6287 138.431 29.815 137.916 29.815ZM139.282 26.7729C139.546 26.7729 139.731 26.6536 139.837 26.415C139.956 26.1615 140.015 25.8557 140.015 25.4978V20.9346C139.5 21.1583 139.117 21.4416 138.866 21.7846C138.629 22.1276 138.51 22.6048 138.51 23.2162V25.3189C138.51 26.2882 138.767 26.7729 139.282 26.7729ZM144.856 13.262H148.322V15.0739C148.494 14.4327 148.791 13.9406 149.213 13.5976C149.649 13.2397 150.184 13.0607 150.818 13.0607V16.3266C150.329 16.3266 149.788 16.4086 149.194 16.5726C148.612 16.7218 148.322 16.9007 148.322 17.1095V29.6361H144.856V13.262ZM154.655 29.815C153.744 29.815 153.117 29.5988 152.774 29.1663C152.43 28.7339 152.259 28.0405 152.259 27.086V16.8634H151.288V13.8884H152.259V10.4212H155.626V13.8884H156.616V16.8634H155.626V26.0571C155.626 26.3404 155.646 26.5492 155.685 26.6834C155.725 26.8176 155.83 26.8847 156.002 26.8847C156.134 26.8847 156.259 26.8773 156.378 26.8624C156.497 26.8474 156.577 26.84 156.616 26.84V29.5243C156.418 29.5839 156.128 29.6435 155.745 29.7032C155.375 29.7778 155.012 29.815 154.655 29.815Z" fill="white"/>
</g>
</g>
<defs>
<filter id="filter0_i" x="10.5222" y="9.43695" width="146.094" height="27.465" filterUnits="userSpaceOnUse" color-interpolation-filters="sRGB">
<feFlood flood-opacity="0" result="BackgroundImageFix"/>
<feBlend mode="normal" in="SourceGraphic" in2="BackgroundImageFix" result="shape"/>
<feColorMatrix in="SourceAlpha" type="matrix" values="0 0 0 0 0 0 0 0 0 0 0 0 0 0 0 0 0 0 127 0" result="hardAlpha"/>
<feOffset dy="4"/>
<feGaussianBlur stdDeviation="2"/>
<feComposite in2="hardAlpha" operator="arithmetic" k2="-1" k3="1"/>
<feColorMatrix type="matrix" values="0 0 0 0 0 0 0 0 0 0 0 0 0 0 0 0 0 0 0.25 0"/>
<feBlend mode="normal" in2="shape" result="effect1_innerShadow"/>
</filter>
<clipPath id="clip0">
<rect x="10.5222" y="6.99036" width="149.478" height="29.0097" fill="white"/>
</clipPath>
</defs>
</svg>
