<svg data-v-423bf9ae="" xmlns="http://www.w3.org/2000/svg" viewBox="0 0 413.68839308549315 60" class="font"><!----><!----><defs data-v-423bf9ae=""><linearGradient data-v-423bf9ae="" gradientTransform="rotate(25)" id="0c750ee0-3b57-44ca-b17e-5c1551f37b8a" x1="0%" y1="0%" x2="100%" y2="0%"><stop data-v-423bf9ae="" offset="0%" style="stop-color: rgb(57, 94, 202); stop-opacity: 1;"></stop><stop data-v-423bf9ae="" offset="100%" style="stop-color: rgb(132, 139, 216); stop-opacity: 1;"></stop></linearGradient></defs><g data-v-423bf9ae="" id="0568c5b9-62ad-4cdb-aea9-5bb36d6c99de" fill="url(#0c750ee0-3b57-44ca-b17e-5c1551f37b8a)" transform="matrix(7.989347293126968,0,0,7.989347293126968,-1.2782879830885463,-19.89347555133424)"><path d="M2.65 7.97L2.65 7.97L2.79 8.59L4.08 8.59L4.08 4.62L2.31 4.62L2.31 5.16L2.56 5.32L2.56 7.52L2.56 7.52Q2.54 7.53 2.52 7.55L2.52 7.55L2.52 7.55Q2.49 7.57 2.48 7.58L2.48 7.58L2.48 7.58Q2.47 7.59 2.45 7.60L2.45 7.60L2.45 7.60Q2.42 7.62 2.41 7.63L2.41 7.63L2.41 7.63Q2.39 7.64 2.37 7.65L2.37 7.65L2.37 7.65Q2.35 7.66 2.33 7.67L2.33 7.67L2.33 7.67Q2.31 7.67 2.29 7.68L2.29 7.68L2.29 7.68Q2.27 7.69 2.24 7.69L2.24 7.69L2.24 7.69Q2.22 7.69 2.19 7.69L2.19 7.69L2.19 7.69Q2.00 7.69 1.92 7.59L1.92 7.59L1.92 7.59Q1.85 7.49 1.85 7.28L1.85 7.28L1.85 4.62L0.16 4.62L0.16 5.16L0.32 5.32L0.32 6.99L0.32 6.99Q0.32 7.90 0.60 8.29L0.60 8.29L0.60 8.29Q0.89 8.68 1.54 8.68L1.54 8.68L1.54 8.68Q1.75 8.68 1.96 8.59L1.96 8.59L1.96 8.59Q2.17 8.50 2.31 8.37L2.31 8.37L2.31 8.37Q2.45 8.25 2.53 8.14L2.53 8.14L2.53 8.14Q2.62 8.03 2.65 7.97ZM5.96 8.68L5.96 8.68L5.96 8.68Q7.77 8.68 7.77 7.25L7.77 7.25L7.77 7.25Q7.77 6.75 7.52 6.42L7.52 6.42L7.52 6.42Q7.27 6.09 6.72 5.91L6.72 5.91L6.72 5.91Q6.63 5.88 6.49 5.84L6.49 5.84L6.49 5.84Q6.36 5.81 6.28 5.79L6.28 5.79L6.28 5.79Q6.21 5.77 6.13 5.73L6.13 5.73L6.13 5.73Q6.05 5.70 6.02 5.65L6.02 5.65L6.02 5.65Q5.99 5.60 5.99 5.53L5.99 5.53L5.99 5.53Q5.99 5.26 6.43 5.26L6.43 5.26L6.43 5.26Q6.97 5.26 7.28 5.57L7.28 5.57L7.49 4.90L7.49 4.90Q7.49 4.90 7.40 4.82L7.40 4.82L7.40 4.82Q7.02 4.53 6.23 4.53L6.23 4.53L6.23 4.53Q5.76 4.53 5.38 4.66L5.38 4.66L5.38 4.66Q5.00 4.80 4.76 5.10L4.76 5.10L4.76 5.10Q4.52 5.40 4.52 5.82L4.52 5.82L4.52 5.82Q4.52 6.85 5.60 7.17L5.60 7.17L5.60 7.17Q6.02 7.30 6.21 7.39L6.21 7.39L6.21 7.39Q6.40 7.49 6.40 7.61L6.40 7.61L6.40 7.61Q6.40 7.74 6.29 7.81L6.29 7.81L6.29 7.81Q6.19 7.88 5.91 7.88L5.91 7.88L5.91 7.88Q5.52 7.88 5.15 7.77L5.15 7.77L5.15 7.77Q4.78 7.65 4.62 7.50L4.62 7.50L4.50 8.25L4.50 8.25Q4.62 8.39 5.07 8.54L5.07 8.54L5.07 8.54Q5.52 8.68 5.96 8.68ZM10.26 6.17L10.26 6.17L9.55 6.17L9.55 5.78L9.55 5.78Q9.55 5.61 9.56 5.50L9.56 5.50L9.56 5.50Q9.57 5.39 9.61 5.29L9.61 5.29L9.61 5.29Q9.66 5.18 9.74 5.14L9.74 5.14L9.74 5.14Q9.83 5.09 9.97 5.09L9.97 5.09L9.97 5.09Q10.14 5.09 10.20 5.33L10.20 5.33L10.20 5.33Q10.26 5.58 10.26 6.17ZM9.88 8.68L9.88 8.68L9.88 8.68Q10.16 8.68 10.47 8.62L10.47 8.62L10.47 8.62Q10.78 8.55 11.11 8.37L11.11 8.37L11.11 8.37Q11.45 8.18 11.62 7.90L11.62 7.90L11.34 7.42L11.34 7.42Q11.21 7.55 11.02 7.63L11.02 7.63L11.02 7.63Q10.83 7.72 10.64 7.77L10.64 7.77L10.64 7.77Q10.45 7.81 10.29 7.81L10.29 7.81L10.29 7.81Q10.12 7.81 10.00 7.78L10.00 7.78L10.00 7.78Q9.88 7.75 9.77 7.67L9.77 7.67L9.77 7.67Q9.66 7.58 9.60 7.41L9.60 7.41L9.60 7.41Q9.54 7.23 9.54 6.95L9.54 6.95L9.54 6.86L11.68 6.86L11.68 6.35L11.68 6.35Q11.68 5.39 11.28 4.96L11.28 4.96L11.28 4.96Q10.88 4.53 9.96 4.53L9.96 4.53L9.96 4.53Q9.01 4.53 8.47 5.06L8.47 5.06L8.47 5.06Q7.94 5.60 7.94 6.65L7.94 6.65L7.94 6.65Q7.94 7.08 8.05 7.44L8.05 7.44L8.05 7.44Q8.15 7.80 8.37 8.08L8.37 8.08L8.37 8.08Q8.59 8.37 8.98 8.53L8.98 8.53L8.98 8.53Q9.36 8.68 9.88 8.68ZM12.19 5.25L12.19 6.42L14.98 6.42L14.98 5.25L12.19 5.25ZM16.94 8.68L16.94 8.68L16.94 8.68Q18.75 8.68 18.75 7.25L18.75 7.25L18.75 7.25Q18.75 6.75 18.50 6.42L18.50 6.42L18.50 6.42Q18.26 6.09 17.71 5.91L17.71 5.91L17.71 5.91Q17.61 5.88 17.48 5.84L17.48 5.84L17.48 5.84Q17.34 5.81 17.27 5.79L17.27 5.79L17.27 5.79Q17.19 5.77 17.11 5.73L17.11 5.73L17.11 5.73Q17.04 5.70 17.01 5.65L17.01 5.65L17.01 5.65Q16.97 5.60 16.97 5.53L16.97 5.53L16.97 5.53Q16.97 5.26 17.42 5.26L17.42 5.26L17.42 5.26Q17.96 5.26 18.27 5.57L18.27 5.57L18.47 4.90L18.47 4.90Q18.47 4.90 18.39 4.82L18.39 4.82L18.39 4.82Q18.01 4.53 17.21 4.53L17.21 4.53L17.21 4.53Q16.74 4.53 16.37 4.66L16.37 4.66L16.37 4.66Q15.99 4.80 15.75 5.10L15.75 5.10L15.75 5.10Q15.50 5.40 15.50 5.82L15.50 5.82L15.50 5.82Q15.50 6.85 16.59 7.17L16.59 7.17L16.59 7.17Q17.01 7.30 17.20 7.39L17.20 7.39L17.20 7.39Q17.38 7.49 17.38 7.61L17.38 7.61L17.38 7.61Q17.38 7.74 17.28 7.81L17.28 7.81L17.28 7.81Q17.17 7.88 16.89 7.88L16.89 7.88L16.89 7.88Q16.51 7.88 16.13 7.77L16.13 7.77L16.13 7.77Q15.76 7.65 15.61 7.50L15.61 7.50L15.48 8.25L15.48 8.25Q15.61 8.39 16.06 8.54L16.06 8.54L16.06 8.54Q16.51 8.68 16.94 8.68ZM20.24 8.68L20.24 8.68L20.24 8.68Q20.56 8.68 20.82 8.61L20.82 8.61L20.82 8.61Q21.07 8.54 21.19 8.48L21.19 8.48L21.19 8.48Q21.30 8.41 21.37 8.34L21.37 8.34L21.37 7.70L21.37 7.70Q21.32 7.75 21.24 7.77L21.24 7.77L21.24 7.77Q21.16 7.79 21.06 7.79L21.06 7.79L21.06 7.79Q20.84 7.79 20.73 7.67L20.73 7.67L20.73 7.67Q20.62 7.55 20.62 7.18L20.62 7.18L20.62 5.44L21.40 5.44L21.40 4.62L20.64 4.62L20.64 3.53L19.81 3.53L19.34 4.62L18.79 4.79L18.79 5.44L19.11 5.44L19.11 7.03L19.11 7.03Q19.11 7.93 19.36 8.31L19.36 8.31L19.36 8.31Q19.61 8.68 20.24 8.68ZM21.81 8.59L23.31 8.59L23.31 6.45L23.31 6.45Q23.45 6.20 23.93 6.20L23.93 6.20L23.93 6.20Q24.26 6.20 24.36 6.29L24.36 6.29L24.51 4.63L24.51 4.63Q24.39 4.59 24.27 4.59L24.27 4.59L24.27 4.59Q23.24 4.59 23.04 5.73L23.04 5.73L22.91 4.62L22.53 4.62L21.53 4.87L21.53 5.39L21.81 5.57L21.81 8.59ZM24.88 5.57L24.88 8.59L26.38 8.59L26.38 4.62L25.60 4.62L24.60 4.90L24.60 5.39L24.88 5.57ZM24.79 3.42L25.55 4.19L25.73 4.19L26.53 3.42L26.53 3.26L25.73 2.49L25.55 2.49L24.79 3.26L24.79 3.42ZM29.42 8.59L29.42 8.59L29.42 8.59Q29.81 8.59 30.11 8.43L30.11 8.43L30.11 8.43Q30.41 8.26 30.60 7.98L30.60 7.98L30.60 7.98Q30.79 7.70 30.89 7.32L30.89 7.32L30.89 7.32Q30.99 6.95 30.99 6.51L30.99 6.51L30.99 6.51Q30.99 5.58 30.63 5.05L30.63 5.05L30.63 5.05Q30.26 4.53 29.49 4.53L29.49 4.53L29.49 4.53Q29.18 4.53 28.94 4.64L28.94 4.64L28.94 4.64Q28.70 4.76 28.53 4.93L28.53 4.93L28.53 4.62L27.75 4.62L26.75 4.90L26.75 5.39L27.03 5.57L27.03 10.00L28.53 10.00L28.53 8.39L28.53 8.39Q28.70 8.47 28.92 8.53L28.92 8.53L28.92 8.53Q29.15 8.59 29.42 8.59ZM28.73 7.94L28.73 7.94L28.73 7.94Q28.69 7.94 28.64 7.93L28.64 7.93L28.64 7.93Q28.59 7.93 28.53 7.91L28.53 7.91L28.53 5.45L28.53 5.45Q28.70 5.36 28.85 5.36L28.85 5.36L28.85 5.36Q29.07 5.36 29.22 5.56L29.22 5.56L29.22 5.56Q29.36 5.77 29.36 6.19L29.36 6.19L29.36 6.98L29.36 6.98Q29.36 7.94 28.73 7.94ZM33.63 6.17L33.63 6.17L32.92 6.17L32.92 5.78L32.92 5.78Q32.92 5.61 32.93 5.50L32.93 5.50L32.93 5.50Q32.94 5.39 32.98 5.29L32.98 5.29L32.98 5.29Q33.03 5.18 33.11 5.14L33.11 5.14L33.11 5.14Q33.20 5.09 33.34 5.09L33.34 5.09L33.34 5.09Q33.51 5.09 33.57 5.33L33.57 5.33L33.57 5.33Q33.63 5.58 33.63 6.17ZM33.25 8.68L33.25 8.68L33.25 8.68Q33.53 8.68 33.84 8.62L33.84 8.62L33.84 8.62Q34.15 8.55 34.48 8.37L34.48 8.37L34.48 8.37Q34.82 8.18 34.99 7.90L34.99 7.90L34.72 7.42L34.72 7.42Q34.58 7.55 34.39 7.63L34.39 7.63L34.39 7.63Q34.20 7.72 34.01 7.77L34.01 7.77L34.01 7.77Q33.82 7.81 33.66 7.81L33.66 7.81L33.66 7.81Q33.49 7.81 33.37 7.78L33.37 7.78L33.37 7.78Q33.25 7.75 33.14 7.67L33.14 7.67L33.14 7.67Q33.03 7.58 32.97 7.41L32.97 7.41L32.97 7.41Q32.91 7.23 32.91 6.95L32.91 6.95L32.91 6.86L35.05 6.86L35.05 6.35L35.05 6.35Q35.05 5.39 34.65 4.96L34.65 4.96L34.65 4.96Q34.25 4.53 33.33 4.53L33.33 4.53L33.33 4.53Q32.38 4.53 31.85 5.06L31.85 5.06L31.85 5.06Q31.31 5.60 31.31 6.65L31.31 6.65L31.31 6.65Q31.31 7.08 31.42 7.44L31.42 7.44L31.42 7.44Q31.52 7.80 31.74 8.08L31.74 8.08L31.74 8.08Q31.96 8.37 32.35 8.53L32.35 8.53L32.35 8.53Q32.73 8.68 33.25 8.68ZM35.56 5.25L35.56 6.42L38.35 6.42L38.35 5.25L35.56 5.25ZM42.17 8.25L42.21 8.20L41.98 7.56L41.98 7.56Q41.82 7.69 41.57 7.75L41.57 7.75L41.57 7.75Q41.33 7.80 41.09 7.80L41.09 7.80L41.09 7.80Q40.99 7.80 40.92 7.79L40.92 7.79L40.92 7.79Q40.85 7.78 40.74 7.72L40.74 7.72L40.74 7.72Q40.63 7.66 40.57 7.55L40.57 7.55L40.57 7.55Q40.50 7.44 40.45 7.22L40.45 7.22L40.45 7.22Q40.40 7 40.40 6.69L40.40 6.69L40.40 6.69Q40.40 5.97 40.56 5.68L40.56 5.68L40.56 5.68Q40.72 5.39 41.15 5.39L41.15 5.39L41.15 5.39Q41.21 5.39 41.25 5.39L41.25 5.39L41.51 6.11L42.18 6.10L42.25 5.01L42.25 5.01Q42.25 5.01 42.15 4.91L42.15 4.91L42.15 4.91Q41.70 4.52 40.89 4.52L40.89 4.52L40.89 4.52Q40.47 4.52 40.11 4.67L40.11 4.67L40.11 4.67Q39.75 4.82 39.48 5.08L39.48 5.08L39.48 5.08Q39.21 5.35 39.06 5.76L39.06 5.76L39.06 5.76Q38.90 6.16 38.90 6.66L38.90 6.66L38.90 6.66Q38.90 7.57 39.40 8.13L39.40 8.13L39.40 8.13Q39.90 8.68 40.85 8.68L40.85 8.68L40.85 8.68Q41.13 8.68 41.38 8.64L41.38 8.64L41.38 8.64Q41.62 8.59 41.77 8.51L41.77 8.51L41.77 8.51Q41.92 8.44 42.02 8.37L42.02 8.37L42.02 8.37Q42.13 8.30 42.17 8.25L42.17 8.25ZM44.68 8.22L44.73 8.17L44.88 8.59L46.16 8.59L46.03 8.22L46.03 6.32L46.03 6.32Q46.03 5.81 45.95 5.48L45.95 5.48L45.95 5.48Q45.87 5.14 45.68 4.93L45.68 4.93L45.68 4.93Q45.49 4.71 45.19 4.62L45.19 4.62L45.19 4.62Q44.88 4.53 44.42 4.53L44.42 4.53L44.42 4.53Q43.89 4.53 43.38 4.68L43.38 4.68L43.38 4.68Q42.87 4.84 42.56 5.04L42.56 5.04L42.85 5.68L42.85 5.68Q43.03 5.59 43.34 5.52L43.34 5.52L43.34 5.52Q43.66 5.45 43.95 5.45L43.95 5.45L43.95 5.45Q44.28 5.45 44.43 5.57L44.43 5.57L44.43 5.57Q44.59 5.68 44.59 5.97L44.59 5.97L44.59 6.05L44.59 6.05Q44.43 6.05 44.25 6.07L44.25 6.07L44.25 6.07Q44.08 6.08 43.86 6.12L43.86 6.12L43.86 6.12Q43.64 6.16 43.44 6.23L43.44 6.23L43.44 6.23Q43.25 6.29 43.05 6.40L43.05 6.40L43.05 6.40Q42.85 6.51 42.71 6.65L42.71 6.65L42.71 6.65Q42.57 6.79 42.49 6.99L42.49 6.99L42.49 6.99Q42.40 7.20 42.40 7.44L42.40 7.44L42.40 7.44Q42.40 8.68 43.66 8.68L43.66 8.68L43.66 8.68Q43.84 8.68 44.02 8.63L44.02 8.63L44.02 8.63Q44.20 8.58 44.32 8.50L44.32 8.50L44.32 8.50Q44.45 8.43 44.54 8.35L44.54 8.35L44.54 8.35Q44.64 8.28 44.68 8.22L44.68 8.22ZM44.36 7.86L44.36 7.86L44.36 7.86Q43.96 7.86 43.96 7.28L43.96 7.28L43.96 7.28Q43.96 6.95 44.13 6.80L44.13 6.80L44.13 6.80Q44.30 6.64 44.59 6.64L44.59 6.64L44.59 7.76L44.59 7.76Q44.59 7.76 44.56 7.79L44.56 7.79L44.56 7.79Q44.53 7.81 44.48 7.84L44.48 7.84L44.48 7.84Q44.42 7.86 44.36 7.86ZM46.62 8.59L48.13 8.59L48.13 6.45L48.13 6.45Q48.26 6.20 48.74 6.20L48.74 6.20L48.74 6.20Q49.07 6.20 49.17 6.29L49.17 6.29L49.33 4.63L49.33 4.63Q49.20 4.59 49.08 4.59L49.08 4.59L49.08 4.59Q48.05 4.59 47.86 5.73L47.86 5.73L47.72 4.62L47.34 4.62L46.34 4.87L46.34 5.39L46.62 5.57L46.62 8.59ZM50.78 8.68L50.78 8.68L50.78 8.68Q51.10 8.68 51.36 8.61L51.36 8.61L51.36 8.61Q51.62 8.54 51.73 8.48L51.73 8.48L51.73 8.48Q51.84 8.41 51.91 8.34L51.91 8.34L51.91 7.70L51.91 7.70Q51.86 7.75 51.78 7.77L51.78 7.77L51.78 7.77Q51.70 7.79 51.60 7.79L51.60 7.79L51.60 7.79Q51.38 7.79 51.27 7.67L51.27 7.67L51.27 7.67Q51.17 7.55 51.17 7.18L51.17 7.18L51.17 5.44L51.94 5.44L51.94 4.62L51.18 4.62L51.18 3.53L50.36 3.53L49.88 4.62L49.33 4.79L49.33 5.44L49.65 5.44L49.65 7.03L49.65 7.03Q49.65 7.93 49.90 8.31L49.90 8.31L49.90 8.31Q50.15 8.68 50.78 8.68Z"></path></g><!----><!----></svg>