<svg width="320" height="320" viewBox="0 0 468 222.5" fill="none" xmlns="http://www.w3.org/2000/svg">
<g clip-path="url(#clip0)">
<path d="M71.9276 227.415C71.9276 227.415 132.966 227.415 255.042 227.415C260.803 221.87 238.498 204.973 242 197.605C268.905 140.996 259.956 110.021 260.772 109C261.589 107.979 301.857 109 301.857 109" stroke="#32325D" stroke-width="21" stroke-linecap="round"/>
<path d="M42.0548 186.395C45.264 187.5 50.1538 182.812 55.8356 174C64.0792 161.201 73.9647 139.724 82.6108 114.679C91.2569 89.6338 96.6357 66.6497 98.0196 51.4887C98.9277 41.0323 98.0009 34.3415 94.7917 33.2365C86.7687 30.474 68.7949 62.605 54.2357 104.953C39.6765 147.301 34.2054 183.715 42.0548 186.395Z" fill="#23A068"/>
<path d="M55.8356 174C64.0791 161.201 73.9647 139.724 82.6107 114.679C91.2568 89.6338 96.6356 66.6497 98.0195 51.4887C89.749 64.3009 79.8773 85.7379 71.2713 110.797C62.6654 135.855 57.2063 158.812 55.8356 174Z" fill="#0E603B"/>
<path d="M43.8521 186.453L73.3622 187.214L98.0432 187.86L114.341 188.289L138.378 188.915L154.689 189.371L178.055 189.991L194.245 190.405L217.197 190.927L233.253 191.34L255.88 192.087L258.214 192.15C262.099 192.246 265.915 191.11 269.114 188.903C274.092 185.534 277.093 179.932 277.142 173.921C277.191 167.91 274.28 162.26 269.357 158.811L267.385 157.369L248.945 144.334L236.022 135.016L217.304 121.548L204.195 112.121L185.09 98.3411L171.807 88.8316L152.263 74.7656L139.301 65.3666L119.251 50.9467L96.243 34.3644C101.907 40.9812 96.2143 75.3667 82.6496 114.827C69.0848 154.287 52.391 184.525 43.8521 186.453Z" fill="#3ECF8E"/>
<path d="M114.314 188.302L138.351 188.928C149.536 169.019 158.252 147.821 164.305 125.802C167.66 113.627 170.194 101.24 171.889 88.725L152.345 74.6591C148.637 114.961 135.608 153.848 114.287 188.248L114.314 188.302Z" fill="#6772E5"/>
<path d="M154.635 189.397L178.055 189.991C184.912 176.547 190.677 162.574 195.292 148.206C199.062 136.398 202.041 124.352 204.208 112.148L185.103 98.368C183.379 110.818 180.76 123.127 177.267 135.201C171.792 154.063 164.2 172.244 154.635 189.397Z" fill="#6772E5"/>
<path d="M194.272 190.392L217.197 190.927C220.323 184.061 223.174 177.108 225.748 170.067C229.92 158.622 233.343 146.918 235.995 135.029L217.277 121.561C212.807 145.519 205.038 168.742 194.19 190.566L194.272 190.392Z" fill="#6772E5"/>
<path d="M233.305 191.448L255.88 192.087L255.963 191.846C260.534 180.69 264.35 169.239 267.383 157.571L248.945 144.334C246.241 156.179 242.692 167.816 238.324 179.154C236.78 183.311 235.13 187.387 233.305 191.448Z" fill="#6772E5"/>
<path d="M98.0162 187.873C114.218 161.778 126.047 133.211 133.037 103.302C135.982 90.8134 138.075 78.139 139.301 65.3666L119.251 50.9467C118.644 64.0599 117.053 77.1089 114.492 89.9837C107.531 124.861 93.5266 157.95 73.3352 187.227L98.0162 187.873Z" fill="#6772E5"/>
<path d="M238.351 179.141C236.781 183.244 235.13 187.387 233.332 191.435L255.88 192.087L255.963 191.846L255.656 191.628L238.351 179.141Z" fill="#32325D"/>
<path d="M207.949 157.253C204.173 168.606 199.603 179.68 194.272 190.392L217.197 190.927C220.323 184.061 223.174 177.108 225.748 170.067L224.216 168.979L207.949 157.253Z" fill="#32325D"/>
<path d="M154.635 189.397L178.055 189.991C184.912 176.547 190.677 162.574 195.292 148.206L192.521 146.219L177.32 135.242C171.826 154.092 164.215 172.259 154.635 189.397Z" fill="#32325D"/>
<path d="M138.351 188.928C149.536 169.019 158.252 147.821 164.305 125.802L160.188 122.837L146.013 112.661C139.512 139.392 128.813 164.923 114.314 188.302L138.351 188.928Z" fill="#32325D"/>
<path d="M73.3352 187.227L98.0162 187.873C114.218 161.778 126.047 133.211 133.037 103.302L127.522 99.3163L114.412 89.889C107.488 124.793 93.5103 157.915 73.3352 187.227Z" fill="#32325D"/>
<path d="M44.228 47.0152L48.5569 52.948L46.1541 59.8609L53.1134 57.5681L58.9463 61.9996L58.9382 54.6604L64.9499 50.4933L57.9548 48.2642L55.8238 41.2261L51.5521 47.1813L44.228 47.0152Z" fill="#D782D9"/>
<path d="M16.2412 141.042L20.5569 146.948L18.1541 153.861L25.1134 151.568L30.9463 156L30.9382 148.66L36.9499 144.493L29.9548 142.264L27.8238 135.226L23.5521 141.181L16.2412 141.042Z" fill="#FE5959"/>
<path d="M49.6301 93.3928C46.6518 94.8454 43.0598 93.6086 41.6071 90.6302C40.1545 87.6519 41.3913 84.0599 44.3697 82.6072C47.348 81.1546 50.94 82.3914 52.3927 85.3698C53.8453 88.3481 52.6085 91.9401 49.6301 93.3928Z" fill="#7356B6"/>
<path d="M229 287.393C241.703 287.393 252 277.096 252 264.393C252 251.691 241.703 241.393 229 241.393C216.297 241.393 206 251.691 206 264.393C206 277.096 216.297 287.393 229 287.393Z" fill="#32325D"/>
<path d="M97 287.393C109.703 287.393 120 277.096 120 264.393C120 251.691 109.703 241.393 97 241.393C84.2975 241.393 74 251.691 74 264.393C74 277.096 84.2975 287.393 97 287.393Z" fill="#32325D"/>
<path d="M29.6301 109.393C26.6518 110.845 23.0598 109.609 21.6071 106.63C20.1545 103.652 21.3913 100.06 24.3697 98.6072C27.348 97.1546 30.94 98.3914 32.3927 101.37C33.8453 104.348 32.6085 107.94 29.6301 109.393Z" fill="#9251AC"/>
<path d="M26.6301 43.3928C23.6518 44.8454 20.0598 43.6086 18.6071 40.6302C17.1545 37.6519 18.3913 34.0599 21.3697 32.6072C24.348 31.1546 27.94 32.3914 29.3927 35.3698C30.8453 38.3481 29.6085 41.9401 26.6301 43.3928Z" fill="#FA755A"/>
<path d="M8.12065 71.011L8.08865 78.3364L2.0237 82.4627L8.99121 84.7721L11.0551 91.8096L15.3801 85.8951L22.7035 86.1283L18.4285 80.1692L20.8984 73.257L13.9128 75.4958L8.12065 71.011Z" fill="#FE9F59"/>
</g>
<defs>
<clipPath id="clip0">
<rect width="320" height="320" fill="white"/>
</clipPath>
</defs>
</svg>
